<svg xmlns="http://www.w3.org/2000/svg" width="733.789" height="403.207" viewBox="0 0 733.789 403.207"><path d="M21.836,0V-187H39.482V0Zm97.475-67.285q0,27.168,12,42.148t33.452,14.98q22.09,0,33.96-14.79t11.87-42.339q0-27.422-11.934-42.339t-33.9-14.917q-21.836,0-33.643,14.79T119.311-67.285ZM224.936-187V0H209.32V-22.852q-7.744,13.2-19.741,19.868T161.713,3.682q-27.295,0-43.164-19.043T102.68-67.285q0-32.881,16.187-51.987t43.862-19.106q15.869,0,27.612,6.729t18.979,20.059V-187Zm24.934,122.51v.762q0,24.756,11.934,39.419T293.795-9.648q15.869,0,26.533-8.569t12.949-23.423h15.615Q346.354-21.074,331.119-8.7T292.779,3.682q-27.549,0-43.164-18.662T234-66.777q0-33.77,15.679-52.686t43.608-18.916q27.168,0,42.339,18.091T350.8-69.7v5.205Zm.254-12.568,84.551.127q-1.016-22.344-12.124-35.1t-29.517-12.759q-18.535,0-30.151,12.949T250.123-77.061ZM353.26-42.021h15.615q.635,13.965,10.6,22.661t25.581,8.7q16.885,0,26.6-6.665t9.712-18.091q0-16.377-35.928-25.01l-.635-.127q-28.945-6.982-38.784-15.361T356.18-99.277q0-17.393,12.886-28.247t33.579-10.854q22.725,0,36.182,11.362T453.68-95.469H437.811q-1.016-13.711-10.283-21.392t-25.137-7.681q-13.838,0-22.09,6.348a20.117,20.117,0,0,0-8.252,16.758q0,18.013,36.814,26.674,4.832,1.095,7.25,1.581Q439.2-67.394,448.219-58.9t9.016,23.858q0,17.139-14.155,27.93T405.818,3.682q-23.486,0-37.705-12.441T353.26-42.021ZM468.838-163.516V-187h15.488v23.486ZM468.838,0V-134.951h15.488V0Zm42.58-67.285q0,26.787,12.124,42.085T556.867-9.9q21.709,0,33.77-15.107T602.7-67.285q0-27.295-12-42.275t-33.833-14.98q-21.836,0-33.643,14.854T511.418-67.285Zm105.625-67.666V-6.982q0,30.85-16.187,46.592t-47.8,15.742q-23.613,0-38.149-10.6T498.977,15.869h16q1.4,12.314,11.108,18.916t26.724,6.6q24.375,0,36.626-12.061t12.251-35.8V-23.105q-8.252,13.457-20,20.122t-27.1,6.665q-27.8,0-43.8-18.979t-16-51.987q0-32.754,16.187-51.924t43.608-19.17q15.615,0,27.295,6.729t19.551,20.059v-23.359ZM632.328,0V-134.951h15.107v21.582q7.617-12.441,18.789-18.726t25.9-6.284q13.965,0,24.5,4.951a36.536,36.536,0,0,1,16.123,14.092,33.083,33.083,0,0,1,4.189,11.362q1.27,6.665,1.27,21.9V0H722.084V-83.662q0-23.74-7.3-32.183t-25.708-8.442q-18.916,0-29.9,12T648.2-79.6V0ZM67.285,113.754Q49.258,122.641,40.5,134.13a42.091,42.091,0,0,0-8.76,26.216q0,18.154,10.918,29.326t28.564,11.172q15.869,0,27.8-5.967T120.1,176.469ZM73.633,95.6Q88.74,87.982,95.6,79.921A27.372,27.372,0,0,0,102.451,61.7q0-10.537-6.475-16.567T78.2,39.105q-11.172,0-17.266,5.84t-6.094,16.5q0,7.236,4.38,15.234T73.633,95.6ZM149.3,211l-18.789-22.344a66.51,66.51,0,0,1-25.327,20.566q-15.044,6.982-34.214,6.982-25.137,0-41.006-15.171T14.092,162.123q0-19.8,11.108-34.658t33.071-24.629q-10.537-11.68-15.3-21.646a46.018,46.018,0,0,1-4.761-20A34.81,34.81,0,0,1,49.639,34.662Q61.064,24,78.457,24q18.408,0,29.263,10.22t10.854,27.231a38.3,38.3,0,0,1-8.315,24.312q-8.315,10.6-27.612,21.011l46.338,54.59a67.35,67.35,0,0,0,4.7-15.552,104.225,104.225,0,0,0,1.523-18.472h16.123a116.906,116.906,0,0,1-3.11,25.645,81.836,81.836,0,0,1-8.569,21.582L170.5,211Zm204.369-61.064h16.885q-2.158,31.1-21.9,48.687T295.9,216.205q-37.705,0-59.541-26.47t-21.836-72.554q0-45.7,22.026-71.855T296.41,19.174q31.738,0,51.353,16.187t21.011,43.354H351.889q-2.158-20.566-17.012-32.437T296.41,34.408q-30.342,0-47.227,21.646T232.3,116.928q0,39.482,17.2,61.826T297.045,201.1q24.756,0,39.8-13.584T353.666,149.936Zm36.359-6.221q0,27.168,12,42.148t33.706,14.98q21.963,0,33.9-14.854t11.934-42.275q0-27.422-11.934-42.339t-33.9-14.917q-21.709,0-33.706,14.98T390.025,143.715Zm-16.123,0q0-33.9,16.187-52.5t45.64-18.6q29.58,0,45.894,18.6t16.313,52.5q0,33.643-16.25,52.178t-45.957,18.535q-29.453,0-45.64-18.472T373.9,143.715Zm142.492,0q0,27.168,12,42.148t33.452,14.98q22.09,0,33.96-14.79t11.87-42.339q0-27.422-11.934-42.339t-33.9-14.917q-21.836,0-33.643,14.79T516.395,143.715ZM622.02,24V211H606.4V188.148q-7.744,13.2-19.741,19.868T558.8,214.682q-27.295,0-43.164-19.043t-15.869-51.924q0-32.881,16.187-51.987t43.862-19.106q15.869,0,27.612,6.729T606.4,99.408V24Zm24.934,122.51v.762q0,24.756,11.934,39.419t31.992,14.663q15.869,0,26.533-8.569t12.949-23.423h15.615Q743.438,189.926,728.2,202.3t-38.34,12.378q-27.549,0-43.164-18.662t-15.615-51.8q0-33.77,15.679-52.686t43.608-18.916q27.168,0,42.339,18.091T747.881,141.3v5.205Zm.254-12.568,84.551.127q-1.016-22.344-12.124-35.1T690.117,86.205q-18.535,0-30.151,12.949T647.207,133.939Z" transform="translate(-14.092 187.002)" fill="#fafafa" opacity="0.09"/></svg>