<svg xmlns="http://www.w3.org/2000/svg" width="30.769" height="30.768" viewBox="0 0 30.769 30.768"><path d="M.583,21.169l14.063,9.377a1.336,1.336,0,0,0,1.477,0l14.063-9.377a1.343,1.343,0,0,0,.583-1.1V10.7a1.343,1.343,0,0,0-.583-1.1L16.123.222a1.339,1.339,0,0,0-1.477,0L.583,9.6A1.343,1.343,0,0,0,0,10.7V20.07a1.343,1.343,0,0,0,.583,1.1Zm13.479,5.805-10.354-6.9L8.328,16.98l5.734,3.829Zm2.644,0V20.81l5.734-3.829,4.619,3.091ZM28.125,17.6l-3.314-2.214,3.314-2.215ZM16.706,3.794,27.06,10.7l-4.619,3.091L16.706,9.958Zm-1.322,8.464,4.67,3.126-4.67,3.126-4.67-3.126ZM14.063,3.794V9.958L8.328,13.787,3.709,10.7ZM2.645,13.17h0l3.314,2.215L2.645,17.6Z" transform="translate(0 0)"/></svg>