<svg xmlns="http://www.w3.org/2000/svg" xmlns:xlink="http://www.w3.org/1999/xlink" width="71.152" height="56.509" viewBox="0 0 71.152 56.509"><defs><linearGradient id="a" x1="0.844" y1="1.137" x2="0.387" y2="0.307" gradientUnits="objectBoundingBox"><stop offset="0" stop-color="#c6d1ff"/><stop offset="0.583" stop-color="#e6d5f4"/><stop offset="0.997" stop-color="#ffd9ec"/></linearGradient></defs><g transform="translate(0 3.374)"><path d="M69.745,88.648C66.638,80.71,57.067,75.95,48.961,79.1c-9.253,3.6-6.185,18.373-14.589,21.361-4.54,1.614-11.251-4.415-15.838-5.34-8.452-1.7-16.1,4.284-17.988,12.577-1.922,8.46,1.161,19.759,10.418,22.055,11.027,2.735,16.771-7.218,26.022-10.076,9.493-2.933,20.048,3.994,27.907-4.434,5.806-6.226,7.929-18.735,4.852-26.6Z" transform="translate(0 -78.118)" fill="url(#a)"/></g><g transform="translate(7.271 0)"><path d="M118.369,117.16A10.036,10.036,0,0,0,98.932,113.6H62.621a2.814,2.814,0,0,0-2.808,2.82v31.22a2.814,2.814,0,0,0,2.808,2.82H112.1a2.814,2.814,0,0,0,2.808-2.82V124.775A10.076,10.076,0,0,0,118.369,117.16Z" transform="translate(-59.15 -99.861)" fill="#2626bc" opacity="0.1"/><g transform="translate(0 3.235)"><g transform="translate(0.663 6.798)"><path d="M112.279,163H62.63a2.739,2.739,0,0,1-2.818-2.653V130.979a2.739,2.739,0,0,1,2.818-2.653h49.649a2.739,2.739,0,0,1,2.818,2.653v29.369A2.739,2.739,0,0,1,112.279,163Z" transform="translate(-59.812 -128.326)" fill="#9fb0fe"/><g transform="translate(0 0.001)"><path d="M349.513,130.984v11.208a9.486,9.486,0,0,1-12.935-13.861H346.86A2.653,2.653,0,0,1,349.513,130.984Z" transform="translate(-294.227 -128.331)" fill="#8399fe"/><path d="M115.1,130.984v3.344L90.028,152.456a4.439,4.439,0,0,1-5.151,0L59.81,134.328v-3.344a2.739,2.739,0,0,1,2.818-2.653h49.65A2.739,2.739,0,0,1,115.1,130.984Z" transform="translate(-59.81 -128.331)" fill="#8399fe"/><path d="M88.313,221.916,115.1,241.285a2.739,2.739,0,0,1-2.818,2.653H62.63a2.739,2.739,0,0,1-2.818-2.653L86.6,221.916A1.479,1.479,0,0,1,88.313,221.916Z" transform="translate(-59.812 -209.264)" fill="#8399fe"/></g><path d="M205.68,228.273l-6.66,5.116a3.981,3.981,0,0,1-4.85,0l-6.66-5.116,8.277-6.358a1.326,1.326,0,0,1,1.616,0Z" transform="translate(-168.952 -209.263)" fill="#6583fe"/><path d="M86.6,150.348l-26.784-19.37a2.739,2.739,0,0,1,2.818-2.653h49.649a2.739,2.739,0,0,1,2.818,2.653l-26.784,19.37A1.479,1.479,0,0,1,86.6,150.348Z" transform="translate(-59.812 -128.326)" fill="#b7c5ff"/></g><g transform="translate(22.377 33.678)"><path d="M338.74,335.236h-4.262a.663.663,0,0,1-.663-.663v-2.939a.663.663,0,0,1,.663-.663h4.262a.663.663,0,0,1,.663.663v2.939A.663.663,0,0,1,338.74,335.236Z" transform="translate(-317.263 -330.971)" fill="#02ffb3"/><g transform="translate(0 0.235)"><g transform="translate(9.285)"><path d="M283.393,334.069H279.7a.663.663,0,1,1,0-1.326h3.692a.663.663,0,1,1,0,1.326Z" transform="translate(-279.038 -332.743)" fill="#fff"/></g><g transform="translate(0 2.704)"><path d="M222.678,354.451H209.7a.663.663,0,0,1,0-1.326h12.977a.663.663,0,1,1,0,1.326Z" transform="translate(-209.038 -353.125)" fill="#fff"/></g></g></g><circle cx="9.486" cy="9.486" r="9.486" transform="translate(40.246 0.663)" fill="#ff5ba8"/><path d="M103.965,97.375c5.916,0,10.73-4.553,10.73-10.15s-4.813-10.15-10.73-10.15-10.73,4.553-10.73,10.15a9.954,9.954,0,0,0,4.158,8.015L83.452,105.37a.734.734,0,0,1-.854,0L56.24,86.218a2.075,2.075,0,0,1,2.078-1.681H90.482a.664.664,0,1,0,0-1.326H58.319a3.419,3.419,0,0,0-3.506,3.316V115.9a3.419,3.419,0,0,0,3.506,3.316h49.413a3.419,3.419,0,0,0,3.506-3.316V98.368a.7.7,0,0,0-1.4,0V114.55L91.478,101.211l7.143-5.19a11.131,11.131,0,0,0,5.344,1.354Zm-29.393,3.836L56.215,114.55V87.873ZM109.807,116.2a2.072,2.072,0,0,1-2.076,1.683H58.319a2.072,2.072,0,0,1-2.076-1.683l19.48-14.155,6.021,4.375a2.2,2.2,0,0,0,2.563,0l6.021-4.375ZM94.638,87.226a9.342,9.342,0,1,1,9.328,8.823A9.1,9.1,0,0,1,94.638,87.226Z" transform="translate(-54.813 -77.076)" fill="#2626bc"/><path d="M373.765,123.18l1.354,3.235-1.354,3.235a.663.663,0,0,0,.872.866l8.173-3.491a.663.663,0,0,0,0-1.22l-8.173-3.491A.663.663,0,0,0,373.765,123.18Z" transform="translate(-328.173 -116.266)" fill="#fff"/><path d="M380.944,138.772l-4.076,1.742.987-2.361-.988-2.361,4.077,1.742A.694.694,0,0,1,380.944,138.772Z" transform="translate(-331.497 -128.003)" fill="#ffdbed"/></g><path d="M318.257,56.53a1.922,1.922,0,1,1,1.36-.562A1.917,1.917,0,0,1,318.257,56.53Zm0-2.519a.6.6,0,1,0,.422.175A.6.6,0,0,0,318.257,54.011Z" transform="translate(-279.517 -52.685)" fill="#00eca2"/><path d="M205.967,434.174a1.922,1.922,0,1,1,1.36-.562A1.918,1.918,0,0,1,205.967,434.174Zm0-2.519a.6.6,0,1,0,.422.175A.6.6,0,0,0,205.967,431.655Z" transform="translate(-183.036 -377.665)" fill="#00eca2"/><path d="M273.964,77.634a.661.661,0,0,1-.469-.194l-.791-.791-.791.791a.663.663,0,0,1-.938-.938l1.26-1.26a.663.663,0,0,1,.938,0l1.26,1.26a.663.663,0,0,1-.469,1.132Z" transform="translate(-240.376 -72.082)" fill="#ff7eb8"/><path d="M418.93,423.409a.661.661,0,0,1-.469-.194l-.791-.791-.791.791a.663.663,0,0,1-.938-.938l1.26-1.26a.663.663,0,0,1,.938,0l1.26,1.26a.663.663,0,0,1-.469,1.132Z" transform="translate(-364.632 -369.42)" fill="#ff7eb8"/><path d="M158.068,428.159a.661.661,0,0,1-.469-.194l-.791-.791-.791.791a.663.663,0,1,1-.938-.938l1.26-1.26a.663.663,0,0,1,.938,0l1.26,1.26a.663.663,0,0,1-.469,1.132Z" transform="translate(-140.796 -373.54)" fill="#6583fe"/></g></svg>