<svg xmlns="http://www.w3.org/2000/svg" width="30" height="28.75" viewBox="0 0 30 28.75"><path d="M15,.5A14.87,14.87,0,0,0,0,15.24,14.765,14.765,0,0,0,10.256,29.225c.75.139,1.025-.317,1.025-.709,0-.35-.013-1.278-.019-2.506C7.09,26.9,6.21,24.033,6.21,24.033a3.929,3.929,0,0,0-1.669-2.156c-1.359-.914.105-.895.105-.895a3.138,3.138,0,0,1,2.3,1.519,3.23,3.23,0,0,0,4.369,1.226,3.121,3.121,0,0,1,.95-1.971c-3.331-.369-6.833-1.636-6.833-7.284a5.632,5.632,0,0,1,1.544-3.955,5.157,5.157,0,0,1,.131-3.9s1.256-.4,4.125,1.511a14.382,14.382,0,0,1,7.5,0c2.85-1.906,4.106-1.511,4.106-1.511a5.3,5.3,0,0,1,.15,3.9,5.654,5.654,0,0,1,1.537,3.955c0,5.663-3.506,6.909-6.844,7.271a3.5,3.5,0,0,1,1.013,2.727c0,1.973-.019,3.558-.019,4.036,0,.386.263.847,1.031.7A14.72,14.72,0,0,0,30,15.24,14.872,14.872,0,0,0,15,.5Z" transform="translate(0 -0.5)"/></svg>