<svg xmlns="http://www.w3.org/2000/svg" width="82.518" height="82.518" viewBox="0 0 82.518 82.518"><path d="M82.518,41.259A41.259,41.259,0,1,1,41.259,0,41.191,41.191,0,0,1,82.518,41.259Z" fill="#f2f2f2"/><path d="M130.88,119.474,126.17,174.1a41.264,41.264,0,0,1-50.343.145L71.1,119.474Z" transform="translate(-59.645 -100.219)" fill="#e64c18"/><path d="M256.546,151.249v56.879l19.649-5.547,4.383-51.332Z" transform="translate(-215.199 -126.873)" fill="#f36518"/><path d="M140.9,195.528l1.927,22.815h25.61l-.838,9.425-8.06,2.183-8.4-2.352-.211-5.876h-7.82l.979,11.585,15.447,4.366,15.447-4.366L176.9,210.64h-26.97l-.669-7.388h0l28.277-.148.64-7.576Z" transform="translate(-118.194 -164.015)" fill="#fff"/><path d="M113.532,16.8v3.92h-3.745V16.8H106.3V28.032h3.484V24.374h3.745v3.658h3.484V16.8Z" transform="translate(-89.17 -14.089)"/><path d="M193.759,16.8H183.045v3.92h3.484v7.4h3.746v-7.4h3.484Z" transform="translate(-153.544 -14.089)"/><path d="M353.79,25V17.337h-3.746V28.573h9.146V25Z" transform="translate(-293.628 -14.543)"/><path d="M268.22,17.337l-2.613,4.007-2.613-4.007h-3.745V28.573h3.745V23l2.613,4.007L268.22,23v5.575h3.746V17.337Z" transform="translate(-217.466 -14.543)"/></svg>