<svg xmlns="http://www.w3.org/2000/svg" width="60.01" height="60.01" viewBox="0 0 60.01 60.01"><path d="M0,0H60.01V60.01H0Z" fill="#f7df1e"/><path d="M67.311,139.074l4.592-2.779c.886,1.571,1.692,2.9,3.625,2.9,1.853,0,3.022-.725,3.022-3.544V116.476h5.639V135.73c0,5.841-3.424,8.5-8.419,8.5a8.753,8.753,0,0,1-8.459-5.156m19.942-.6,4.592-2.658c1.209,1.974,2.78,3.424,5.559,3.424,2.337,0,3.827-1.168,3.827-2.78,0-1.933-1.531-2.618-4.109-3.746l-1.41-.6c-4.069-1.732-6.768-3.907-6.768-8.5,0-4.23,3.222-7.452,8.258-7.452,3.585,0,6.163,1.249,8.016,4.512l-4.391,2.82c-.967-1.732-2.014-2.417-3.625-2.417a2.454,2.454,0,0,0-2.7,2.417c0,1.692,1.047,2.377,3.464,3.424l1.41.6c4.794,2.055,7.493,4.149,7.493,8.862,0,5.076-3.988,7.855-9.345,7.855-5.237,0-8.62-2.5-10.272-5.76" transform="translate(-51.532 -88.925)"/></svg>