<svg xmlns="http://www.w3.org/2000/svg" width="88.477" height="22.002" viewBox="0 0 88.477 22.002"><g transform="translate(-214.007 -89.423)"><path d="M2.007,0V-21.577H3.838v8.438a5.928,5.928,0,0,1,2.153-2.109,6.01,6.01,0,0,1,2.974-.718,6.4,6.4,0,0,1,2.783.586,4.358,4.358,0,0,1,1.875,1.611,4,4,0,0,1,.483,1.362,19.3,19.3,0,0,1,.146,2.93V0H12.422V-9.448q0-2.915-.835-3.9a3.735,3.735,0,0,0-2.974-.989,4.514,4.514,0,0,0-3.479,1.4,5.309,5.309,0,0,0-1.3,3.757V0Zm24-8.159a9.274,9.274,0,0,1-1.838.425q-1.121.161-3.611.293A5.922,5.922,0,0,0,17.95-6.152a2.67,2.67,0,0,0-.879,2.007,2.628,2.628,0,0,0,.945,2.124,3.881,3.881,0,0,0,2.571.791,5.8,5.8,0,0,0,3.948-1.282,4.393,4.393,0,0,0,1.472-3.494Zm.117,5.9A8.431,8.431,0,0,1,23.458-.264,7.317,7.317,0,0,1,20.367.4,5.485,5.485,0,0,1,16.61-.835a4.153,4.153,0,0,1-1.4-3.281,4.209,4.209,0,0,1,.637-2.325A4.347,4.347,0,0,1,17.7-8.011a15.013,15.013,0,0,1,4.644-.875q.63-.048.952-.08.19-.039.513-.1,2.227-.455,2.227-1.921a3.288,3.288,0,0,0-.9-2.6,4.5,4.5,0,0,0-2.966-.784,5.112,5.112,0,0,0-3.208.872,3.314,3.314,0,0,0-1.2,2.585l-1.772-.015A4.671,4.671,0,0,1,17.7-14.612a6.843,6.843,0,0,1,4.468-1.355,6.518,6.518,0,0,1,4.248,1.2,4.3,4.3,0,0,1,1.45,3.516v8.5a1.923,1.923,0,0,0,.234,1.2,1.247,1.247,0,0,0,.879.234q.205,0,.352-.007t.308-.022V0a6.452,6.452,0,0,1-.674.11,5.733,5.733,0,0,1-.615.037A2.306,2.306,0,0,1,26.681-.4a2.152,2.152,0,0,1-.557-1.611ZM29.821,0V-21.577h1.8V-8.013L39.4-15.571h2.3l-5.874,5.7L42.419,0H40.358l-5.79-8.672L31.623-5.845V0ZM43.143-7.441v.088A6.992,6.992,0,0,0,44.52-2.805a4.515,4.515,0,0,0,3.691,1.692A4.731,4.731,0,0,0,51.272-2.1a4.131,4.131,0,0,0,1.494-2.7h1.8A5.584,5.584,0,0,1,52.518-1,6.788,6.788,0,0,1,48.094.425a6.143,6.143,0,0,1-4.98-2.153,9.041,9.041,0,0,1-1.8-5.977,9.26,9.26,0,0,1,1.809-6.079,6.177,6.177,0,0,1,5.032-2.183,6.027,6.027,0,0,1,4.885,2.087,8.825,8.825,0,0,1,1.75,5.837v.6Zm.029-1.45,9.756.015a6.428,6.428,0,0,0-1.4-4.05A4.292,4.292,0,0,0,48.123-14.4a4.456,4.456,0,0,0-3.479,1.494A6.305,6.305,0,0,0,43.172-8.892Zm13.614,1.45v.088a6.992,6.992,0,0,0,1.377,4.548,4.515,4.515,0,0,0,3.691,1.692A4.731,4.731,0,0,0,64.916-2.1,4.131,4.131,0,0,0,66.41-4.8h1.8A5.584,5.584,0,0,1,66.161-1,6.788,6.788,0,0,1,61.737.425a6.143,6.143,0,0,1-4.98-2.153,9.041,9.041,0,0,1-1.8-5.977,9.26,9.26,0,0,1,1.809-6.079A6.177,6.177,0,0,1,61.8-15.967a6.027,6.027,0,0,1,4.885,2.087,8.825,8.825,0,0,1,1.75,5.837v.6Zm.029-1.45,9.756.015a6.428,6.428,0,0,0-1.4-4.05A4.292,4.292,0,0,0,61.767-14.4a4.456,4.456,0,0,0-3.479,1.494A6.305,6.305,0,0,0,56.815-8.892ZM69.375,0V-15.571H71.06v2.578a5.759,5.759,0,0,1,2.055-2.2A5.449,5.449,0,0,1,76-15.967a4.977,4.977,0,0,1,2.9.8,3.807,3.807,0,0,1,1.536,2.263,5.637,5.637,0,0,1,2.058-2.278,5.544,5.544,0,0,1,2.952-.784A5.11,5.11,0,0,1,89.231-14.7a5.267,5.267,0,0,1,1.252,3.845V0H88.652V-10.708a4.177,4.177,0,0,0-.762-2.812,3.22,3.22,0,0,0-2.5-.85A4.418,4.418,0,0,0,82.075-13.1a4.575,4.575,0,0,0-1.245,3.34V0h-1.8V-10.532a4.33,4.33,0,0,0-.8-2.871,3.08,3.08,0,0,0-2.471-.937,4.406,4.406,0,0,0-3.312,1.3,4.7,4.7,0,0,0-1.265,3.413V0Z" transform="translate(212 111)" fill="#fafafa"/></g></svg>