<svg xmlns="http://www.w3.org/2000/svg" width="58.438" height="51.362" viewBox="0 0 58.438 51.362"><path d="M205.8,31H192.1a11.977,11.977,0,0,0-1.712,23.847v5.258a1.712,1.712,0,0,0,2.923,1.21l5.638-5.638.709-.709H205.8A11.985,11.985,0,1,0,205.8,31Z" transform="translate(-159.455 -31)" fill="#fed843"/><path d="M352.848,54.969a11.985,11.985,0,1,0,0-23.969H346V55.678l.709-.709Z" transform="translate(-306.508 -31)" fill="#fabe2c"/><path d="M43.6,131.5v6.848a5.124,5.124,0,0,1-5.112,5.136c-9.863,0-19.484-4.663-26.641-11.79S0,114.975,0,105.112A5.121,5.121,0,0,1,5.136,100h6.848a1.709,1.709,0,0,1,1.623,1.17l3.424,10.248a1.713,1.713,0,0,1-.2,1.492l-2.9,4.357a26.828,26.828,0,0,0,5.3,7.051,27.873,27.873,0,0,0,7.108,5.239l4.357-2.9a1.714,1.714,0,0,1,1.492-.2l10.272,3.424A1.688,1.688,0,0,1,43.6,131.5Z" transform="translate(0 -92.125)" fill="#ff641a"/><path d="M135.553,320.244v6.848a5.124,5.124,0,0,1-5.112,5.136c-9.863,0-19.484-4.663-26.641-11.79l7.378-7.378a27.874,27.874,0,0,0,7.108,5.239l4.357-2.9a1.714,1.714,0,0,1,1.492-.2l10.272,3.424A1.688,1.688,0,0,1,135.553,320.244Z" transform="translate(-91.953 -280.866)" fill="#f03800"/><circle cx="1.739" cy="1.739" r="1.739" transform="translate(30.605 10.324)" fill="#613d5c"/><circle cx="1.739" cy="1.739" r="1.739" transform="translate(37.56 10.324)" fill="#613d5c"/><g transform="translate(39.492 10.272)"><path d="M347.712,122.71A1.712,1.712,0,0,0,346,121v3.424A1.712,1.712,0,0,0,347.712,122.71Z" transform="translate(-346 -120.998)" fill="#4b2746"/><circle cx="1.739" cy="1.739" r="1.739" transform="translate(5.025 0.051)" fill="#4b2746"/></g></svg>