<svg xmlns="http://www.w3.org/2000/svg" width="42.574" height="46.445" viewBox="0 0 42.574 46.445"><g transform="translate(-1)"><path d="M34.06,42.7H10.838A4.843,4.843,0,0,1,6,37.866V8.838A4.843,4.843,0,0,1,10.838,4H34.06A4.843,4.843,0,0,1,38.9,8.838V37.866A4.843,4.843,0,0,1,34.06,42.7ZM10.838,5.935a2.906,2.906,0,0,0-2.9,2.9V37.866a2.906,2.906,0,0,0,2.9,2.9H34.06a2.906,2.906,0,0,0,2.9-2.9V8.838a2.906,2.906,0,0,0-2.9-2.9Z" transform="translate(4.676 3.741)" fill="#fff"/><path d="M7.773,40.639H5.838A4.843,4.843,0,0,1,1,35.8V4.838A4.843,4.843,0,0,1,5.838,0H29.06A4.843,4.843,0,0,1,33.9,4.838a.968.968,0,1,1-1.935,0,2.906,2.906,0,0,0-2.9-2.9H5.838a2.906,2.906,0,0,0-2.9,2.9V35.8a2.906,2.906,0,0,0,2.9,2.9H7.773a.968.968,0,0,1,0,1.935Z" fill="#fff"/><path d="M26.449,17.935H10.968a.968.968,0,0,1,0-1.935H26.449a.968.968,0,0,1,0,1.935Z" transform="translate(8.417 14.963)" fill="#fff"/><path d="M26.449,21.935H10.968a.968.968,0,1,1,0-1.935H26.449a.968.968,0,0,1,0,1.935Z" transform="translate(8.417 18.704)" fill="#fff"/><path d="M26.449,13.935H10.968a.968.968,0,0,1,0-1.935H26.449a.968.968,0,0,1,0,1.935Z" transform="translate(8.417 11.222)" fill="#fff"/><path d="M26.449,9.935H10.968a.968.968,0,0,1,0-1.935H26.449a.968.968,0,0,1,0,1.935Z" transform="translate(8.417 7.482)" fill="#fff"/></g></svg>