<svg xmlns="http://www.w3.org/2000/svg" width="80.058" height="60.01" viewBox="0 0 80.058 60.01"><path d="M68.8,34.7a16.493,16.493,0,0,0-7.256,1.689,14.925,14.925,0,0,1-1.626-3.753,10.38,10.38,0,0,1-.141-3.159,25.312,25.312,0,0,1,.954-3.409c-.016-.141-.172-.829-1.783-.844s-3,.313-3.159.735a17.96,17.96,0,0,0-.672,2.393c-.281,1.47-3.221,6.677-4.895,9.414a9.6,9.6,0,0,1-1.11-2.752,10.379,10.379,0,0,1-.141-3.159,25.325,25.325,0,0,1,.954-3.409c-.016-.141-.172-.829-1.783-.844s-3,.313-3.159.735-.328,1.423-.672,2.393c-.329.97-4.238,9.664-5.254,11.932-.516,1.157-.969,2.08-1.3,2.705s-.016.047-.047.109c-.281.532-.438.829-.438.829v.016c-.219.391-.453.766-.563.766a5.215,5.215,0,0,1,.031-2.486c.579-3.018,1.986-7.725,1.971-7.9,0-.078.266-.907-.907-1.329a1.425,1.425,0,0,0-1.642.281c-.094,0-.172.25-.172.25s1.267-5.3-2.424-5.3c-2.314,0-5.5,2.518-7.084,4.816-1,.547-3.128,1.7-5.379,2.94-.86.469-1.751.97-2.6,1.423l-.172-.188c-4.472-4.77-12.745-8.147-12.4-14.559.125-2.33.938-8.476,15.888-15.919,12.244-6.1,22.049-4.425,23.754-.7C48,13.73,40.342,23.613,27.613,25.036c-4.848.547-7.4-1.329-8.038-2.033-.672-.735-.766-.766-1.016-.626-.407.219-.156.876,0,1.267a7.549,7.549,0,0,0,4.6,3.612c2.33.766,8.022,1.188,14.9-1.47,7.709-2.987,13.73-11.275,11.963-18.2-1.8-7.053-13.5-9.367-24.551-5.442-6.584,2.346-13.714,6-18.844,10.806C.528,18.64-.442,23.613-.035,25.677,1.388,33.042,11.537,37.843,15.6,41.393c-.2.109-.391.219-.563.313-2.033,1-9.774,5.051-11.713,9.336-2.189,4.848.344,8.335,2.033,8.8,5.223,1.454,10.571-1.157,13.464-5.458,2.877-4.3,2.533-9.883,1.2-12.432l-.047-.094,1.6-.938c1.032-.61,2.049-1.173,2.94-1.658a19.47,19.47,0,0,0-1.048,5.317c-.219,2.752.907,6.318,2.393,7.725a2.647,2.647,0,0,0,1.923.626c1.72,0,2.5-1.423,3.362-3.128,1.063-2.08,2-4.488,2-4.488s-1.173,6.521,2.033,6.521c1.173,0,2.346-1.517,2.877-2.3v.016s.031-.047.094-.156.128-.2.188-.3v-.031c.469-.813,1.517-2.674,3.081-5.755,2.017-3.972,3.956-8.945,3.956-8.945a28.543,28.543,0,0,0,.766,3.221,30.826,30.826,0,0,0,1.673,3.753c-.469.657-.751,1.032-.751,1.032l.016.016c-.375.5-.8,1.032-1.235,1.564a45.448,45.448,0,0,0-3.753,4.707,1.288,1.288,0,0,0,.344,1.72,3.13,3.13,0,0,0,1.97.313,8.777,8.777,0,0,0,2.94-.673A10.182,10.182,0,0,0,49.881,48.7,5.64,5.64,0,0,0,52.3,43.708a10.03,10.03,0,0,0-.923-3.519c.141-.2.282-.407.422-.626a66.011,66.011,0,0,0,4.379-7.584,28.544,28.544,0,0,0,.766,3.221,22.585,22.585,0,0,0,1.423,3.222,13.9,13.9,0,0,0-4.269,5.52c-.923,2.658-.2,3.863,1.157,4.144a4.163,4.163,0,0,0,2.142-.438,9.708,9.708,0,0,0,2.705-1.392c1.564-1.157,3.065-2.768,2.987-4.942a9.473,9.473,0,0,0-.672-2.924,15.235,15.235,0,0,1,7.756-.891c6.959.813,8.335,5.16,8.069,6.974A4.671,4.671,0,0,1,76.043,47.6c-.485.3-.641.407-.594.626.063.329.281.313.7.25a5.413,5.413,0,0,0,3.784-4.832c.188-4.3-3.894-8.992-11.134-8.946ZM15.134,52.793c-2.3,2.518-5.536,3.472-6.912,2.658-1.486-.86-.907-4.566,1.923-7.24a36.8,36.8,0,0,1,5.426-4.05c.328-.2.829-.5,1.423-.86a1.668,1.668,0,0,1,.156-.094c.109-.063.235-.141.36-.219a9.975,9.975,0,0,1-2.377,9.8ZM31.944,41.362c-.8,1.955-2.486,6.974-3.5,6.693-.876-.235-1.407-4.035-.172-7.788a17.385,17.385,0,0,1,2.737-5.02c1.267-1.407,2.643-1.877,2.987-1.3C34.4,34.7,32.445,40.142,31.944,41.362Zm13.871,6.63c-.344.172-.657.3-.8.2-.109-.063.141-.3.141-.3s1.736-1.861,2.424-2.721c.391-.5.86-1.079,1.36-1.736v.188c0,2.252-2.158,3.753-3.127,4.363Zm10.7-2.439c-.25-.188-.219-.766.626-2.58a9.669,9.669,0,0,1,2.377-3.065,3.868,3.868,0,0,1,.235,1.345A4.4,4.4,0,0,1,56.511,45.553Z" transform="translate(0.116 -0.241)" fill="#cf649a"/></svg>