<svg xmlns="http://www.w3.org/2000/svg" width="38.751" height="38.751" viewBox="0 0 38.751 38.751"><circle cx="10" cy="10" r="10" transform="translate(9.375 9.375)" fill="#fff"/><path d="M242.135,6.179a1.135,1.135,0,0,0,1.135-1.135V1.135a1.135,1.135,0,0,0-2.271,0V5.044A1.135,1.135,0,0,0,242.135,6.179Z" transform="translate(-222.76)" fill="#fff"/><path d="M435.4,241h-3.909a1.135,1.135,0,1,0,0,2.271H435.4a1.135,1.135,0,1,0,0-2.271Z" transform="translate(-397.785 -222.76)" fill="#fff"/><path d="M242.135,430.357A1.135,1.135,0,0,0,241,431.492V435.4a1.135,1.135,0,1,0,2.271,0v-3.909A1.135,1.135,0,0,0,242.135,430.357Z" transform="translate(-222.76 -397.785)" fill="#fff"/><path d="M6.179,242.135A1.135,1.135,0,0,0,5.044,241H1.135a1.135,1.135,0,0,0,0,2.271H5.044A1.135,1.135,0,0,0,6.179,242.135Z" transform="translate(0 -222.76)" fill="#fff"/><path d="M376.031,75.621a1.131,1.131,0,0,0,.8-.333l2.764-2.764a1.135,1.135,0,0,0-1.606-1.606l-2.764,2.764a1.135,1.135,0,0,0,.8,1.938Z" transform="translate(-346.522 -65.244)" fill="#fff"/><path d="M376.834,375.23a1.135,1.135,0,1,0-1.605,1.606l2.764,2.764a1.135,1.135,0,0,0,1.605-1.606Z" transform="translate(-346.522 -346.523)" fill="#fff"/><path d="M73.683,375.228l-2.764,2.764a1.135,1.135,0,1,0,1.605,1.606l2.764-2.764a1.135,1.135,0,1,0-1.605-1.605Z" transform="translate(-65.244 -346.522)" fill="#fff"/><path d="M73.683,75.288a1.135,1.135,0,1,0,1.605-1.606l-2.764-2.764a1.135,1.135,0,0,0-1.606,1.606Z" transform="translate(-65.244 -65.244)" fill="#fff"/><path d="M314.365,24.242a1.134,1.134,0,0,0,1.484-.613l1.5-3.609a1.135,1.135,0,0,0-2.1-.871l-1.5,3.609A1.136,1.136,0,0,0,314.365,24.242Z" transform="translate(-289.925 -17.053)" fill="#fff"/><path d="M421.035,315.253l-3.609-1.5a1.135,1.135,0,0,0-.871,2.1l3.609,1.5a1.135,1.135,0,0,0,.871-2.1Z" transform="translate(-384.381 -289.926)" fill="#fff"/><path d="M151.581,415.942a1.135,1.135,0,0,0-1.484.613l-1.5,3.609a1.135,1.135,0,1,0,2.1.871l1.5-3.609A1.135,1.135,0,0,0,151.581,415.942Z" transform="translate(-137.27 -384.381)" fill="#fff"/><path d="M19.15,150.693l3.609,1.5a1.135,1.135,0,0,0,.871-2.1l-3.609-1.5a1.135,1.135,0,0,0-.871,2.1Z" transform="translate(-17.053 -137.269)" fill="#fff"/><path d="M416.11,152.09a1.134,1.134,0,0,0,1.483.616l3.613-1.492a1.135,1.135,0,1,0-.866-2.1l-3.613,1.492A1.135,1.135,0,0,0,416.11,152.09Z" transform="translate(-384.537 -137.751)" fill="#fff"/><path d="M315.439,416.727a1.135,1.135,0,0,0-2.1.866l1.492,3.613a1.135,1.135,0,0,0,2.1-.866Z" transform="translate(-289.546 -384.538)" fill="#fff"/><path d="M24.03,313.957a1.135,1.135,0,0,0-1.483-.616l-3.613,1.492a1.135,1.135,0,1,0,.866,2.1l3.613-1.492A1.135,1.135,0,0,0,24.03,313.957Z" transform="translate(-16.852 -289.546)" fill="#fff"/><path d="M150.608,23.415a1.135,1.135,0,0,0,2.1-.866l-1.492-3.613a1.135,1.135,0,0,0-2.1.866Z" transform="translate(-137.751 -16.853)" fill="#fff"/></svg>